<mxfile host="65bd71144e">
    <diagram id="LjahWVpIOMi3En7ilmGU" name="Page-1">
        <mxGraphModel dx="3793" dy="3467" grid="1" gridSize="10" guides="1" tooltips="1" connect="1" arrows="1" fold="1" page="1" pageScale="1" pageWidth="1700" pageHeight="1100" math="0" shadow="0">
            <root>
                <mxCell id="0"/>
                <mxCell id="1" parent="0"/>
                <mxCell id="34" style="rounded=1;html=1;exitX=1;exitY=0.5;exitDx=0;exitDy=0;entryX=0.5;entryY=0;entryDx=0;entryDy=0;strokeWidth=1;dashed=1;" edge="1" parent="1" source="2" target="30">
                    <mxGeometry relative="1" as="geometry"/>
                </mxCell>
                <mxCell id="2" value="" style="rounded=0;whiteSpace=wrap;html=1;strokeWidth=5;" parent="1" vertex="1">
                    <mxGeometry x="80" y="440" width="480" height="40" as="geometry"/>
                </mxCell>
                <mxCell id="3" value="1" style="text;html=1;align=center;verticalAlign=middle;resizable=0;points=[];autosize=1;strokeColor=none;fillColor=none;fontSize=20;strokeWidth=5;" parent="1" vertex="1">
                    <mxGeometry x="40" y="440" width="30" height="40" as="geometry"/>
                </mxCell>
                <mxCell id="4" value="seq_len" style="text;html=1;align=center;verticalAlign=middle;resizable=0;points=[];autosize=1;strokeColor=none;fillColor=none;fontSize=20;strokeWidth=5;" parent="1" vertex="1">
                    <mxGeometry x="240" y="400" width="90" height="40" as="geometry"/>
                </mxCell>
                <mxCell id="5" value="" style="rounded=0;whiteSpace=wrap;html=1;rotation=90;strokeWidth=5;" parent="1" vertex="1">
                    <mxGeometry x="1355" y="-40" width="480" height="320" as="geometry"/>
                </mxCell>
                <mxCell id="6" value="seq_len" style="text;html=1;align=center;verticalAlign=middle;resizable=0;points=[];autosize=1;strokeColor=none;fillColor=none;fontSize=20;strokeWidth=5;" parent="1" vertex="1">
                    <mxGeometry x="1320" y="110" width="90" height="40" as="geometry"/>
                </mxCell>
                <mxCell id="7" value="pred_len" style="text;html=1;align=center;verticalAlign=middle;resizable=0;points=[];autosize=1;strokeColor=none;fillColor=none;fontSize=20;strokeWidth=5;" parent="1" vertex="1">
                    <mxGeometry x="1545" y="-170" width="100" height="40" as="geometry"/>
                </mxCell>
                <mxCell id="41" style="rounded=1;html=1;exitX=1;exitY=0.5;exitDx=0;exitDy=0;strokeWidth=1;dashed=1;" edge="1" parent="1" source="8">
                    <mxGeometry relative="1" as="geometry">
                        <mxPoint x="2360" y="440" as="targetPoint"/>
                    </mxGeometry>
                </mxCell>
                <mxCell id="8" value="" style="rounded=0;whiteSpace=wrap;html=1;rotation=90;strokeWidth=5;" parent="1" vertex="1">
                    <mxGeometry x="2050" y="-20" width="40" height="320" as="geometry"/>
                </mxCell>
                <mxCell id="9" value="1" style="text;html=1;align=center;verticalAlign=middle;resizable=0;points=[];autosize=1;strokeColor=none;fillColor=none;fontSize=20;strokeWidth=5;" parent="1" vertex="1">
                    <mxGeometry x="1870" y="120" width="30" height="40" as="geometry"/>
                </mxCell>
                <mxCell id="10" value="pred_len" style="text;html=1;align=center;verticalAlign=middle;resizable=0;points=[];autosize=1;strokeColor=none;fillColor=none;fontSize=20;strokeWidth=5;" parent="1" vertex="1">
                    <mxGeometry x="2065" y="80" width="100" height="40" as="geometry"/>
                </mxCell>
                <mxCell id="11" value="" style="shape=umlDestroy;strokeWidth=5;" parent="1" vertex="1">
                    <mxGeometry x="1230" y="120" width="40" height="70" as="geometry"/>
                </mxCell>
                <mxCell id="12" value="" style="endArrow=none;html=1;strokeWidth=5;" parent="1" edge="1">
                    <mxGeometry width="50" height="50" relative="1" as="geometry">
                        <mxPoint x="1800" y="130" as="sourcePoint"/>
                        <mxPoint x="1860" y="130" as="targetPoint"/>
                    </mxGeometry>
                </mxCell>
                <mxCell id="13" value="" style="endArrow=none;html=1;strokeWidth=5;" parent="1" edge="1">
                    <mxGeometry width="50" height="50" relative="1" as="geometry">
                        <mxPoint x="1800" y="154.89" as="sourcePoint"/>
                        <mxPoint x="1860" y="154.89" as="targetPoint"/>
                    </mxGeometry>
                </mxCell>
                <mxCell id="14" value="" style="rounded=0;whiteSpace=wrap;html=1;strokeWidth=5;fillColor=#d5e8d4;strokeColor=#82b366;rotation=90;" parent="1" vertex="1">
                    <mxGeometry x="1280" y="100" width="480" height="40" as="geometry"/>
                </mxCell>
                <mxCell id="15" value="" style="rounded=0;whiteSpace=wrap;html=1;strokeWidth=5;fillColor=#d5e8d4;strokeColor=#82b366;rotation=90;" parent="1" vertex="1">
                    <mxGeometry x="1960" y="120" width="40" height="40" as="geometry"/>
                </mxCell>
                <mxCell id="16" value="" style="rounded=0;whiteSpace=wrap;html=1;strokeWidth=5;fillColor=#d5e8d4;strokeColor=#82b366;" vertex="1" parent="1">
                    <mxGeometry x="690" y="140" width="480" height="40" as="geometry"/>
                </mxCell>
                <mxCell id="17" value="1" style="text;html=1;align=center;verticalAlign=middle;resizable=0;points=[];autosize=1;strokeColor=none;fillColor=none;fontSize=20;strokeWidth=5;" vertex="1" parent="1">
                    <mxGeometry x="650" y="140" width="30" height="40" as="geometry"/>
                </mxCell>
                <mxCell id="18" value="seq_len" style="text;html=1;align=center;verticalAlign=middle;resizable=0;points=[];autosize=1;strokeColor=none;fillColor=none;fontSize=20;strokeWidth=5;" vertex="1" parent="1">
                    <mxGeometry x="850" y="100" width="90" height="40" as="geometry"/>
                </mxCell>
                <mxCell id="19" value="" style="rounded=0;whiteSpace=wrap;html=1;rotation=90;strokeWidth=5;" vertex="1" parent="1">
                    <mxGeometry x="1355" y="660" width="480" height="320" as="geometry"/>
                </mxCell>
                <mxCell id="20" value="seq_len" style="text;html=1;align=center;verticalAlign=middle;resizable=0;points=[];autosize=1;strokeColor=none;fillColor=none;fontSize=20;strokeWidth=5;" vertex="1" parent="1">
                    <mxGeometry x="1320" y="810" width="90" height="40" as="geometry"/>
                </mxCell>
                <mxCell id="21" value="pred_len" style="text;html=1;align=center;verticalAlign=middle;resizable=0;points=[];autosize=1;strokeColor=none;fillColor=none;fontSize=20;strokeWidth=5;" vertex="1" parent="1">
                    <mxGeometry x="1545" y="530" width="100" height="40" as="geometry"/>
                </mxCell>
                <mxCell id="42" style="rounded=1;html=1;exitX=0;exitY=0.5;exitDx=0;exitDy=0;strokeWidth=1;dashed=1;" edge="1" parent="1" source="22">
                    <mxGeometry relative="1" as="geometry">
                        <mxPoint x="2360" y="440" as="targetPoint"/>
                    </mxGeometry>
                </mxCell>
                <mxCell id="22" value="" style="rounded=0;whiteSpace=wrap;html=1;rotation=90;strokeWidth=5;" vertex="1" parent="1">
                    <mxGeometry x="2050" y="680" width="40" height="320" as="geometry"/>
                </mxCell>
                <mxCell id="23" value="1" style="text;html=1;align=center;verticalAlign=middle;resizable=0;points=[];autosize=1;strokeColor=none;fillColor=none;fontSize=20;strokeWidth=5;" vertex="1" parent="1">
                    <mxGeometry x="1870" y="820" width="30" height="40" as="geometry"/>
                </mxCell>
                <mxCell id="24" value="pred_len" style="text;html=1;align=center;verticalAlign=middle;resizable=0;points=[];autosize=1;strokeColor=none;fillColor=none;fontSize=20;strokeWidth=5;" vertex="1" parent="1">
                    <mxGeometry x="2090" y="770" width="100" height="40" as="geometry"/>
                </mxCell>
                <mxCell id="25" value="" style="shape=umlDestroy;strokeWidth=5;" vertex="1" parent="1">
                    <mxGeometry x="1230" y="820" width="40" height="70" as="geometry"/>
                </mxCell>
                <mxCell id="26" value="" style="endArrow=none;html=1;strokeWidth=5;" edge="1" parent="1">
                    <mxGeometry width="50" height="50" relative="1" as="geometry">
                        <mxPoint x="1800" y="830" as="sourcePoint"/>
                        <mxPoint x="1860" y="830" as="targetPoint"/>
                    </mxGeometry>
                </mxCell>
                <mxCell id="27" value="" style="endArrow=none;html=1;strokeWidth=5;" edge="1" parent="1">
                    <mxGeometry width="50" height="50" relative="1" as="geometry">
                        <mxPoint x="1800" y="854.8900000000003" as="sourcePoint"/>
                        <mxPoint x="1860" y="854.8900000000003" as="targetPoint"/>
                    </mxGeometry>
                </mxCell>
                <mxCell id="28" value="" style="rounded=0;whiteSpace=wrap;html=1;strokeWidth=5;fillColor=#dae8fc;strokeColor=#6c8ebf;rotation=90;" vertex="1" parent="1">
                    <mxGeometry x="1280" y="800" width="480" height="40" as="geometry"/>
                </mxCell>
                <mxCell id="29" value="" style="rounded=0;whiteSpace=wrap;html=1;strokeWidth=5;fillColor=#dae8fc;strokeColor=#6c8ebf;rotation=90;" vertex="1" parent="1">
                    <mxGeometry x="1960" y="820" width="40" height="40" as="geometry"/>
                </mxCell>
                <mxCell id="30" value="" style="rounded=0;whiteSpace=wrap;html=1;strokeWidth=5;fillColor=#dae8fc;strokeColor=#6c8ebf;" vertex="1" parent="1">
                    <mxGeometry x="690" y="840" width="480" height="40" as="geometry"/>
                </mxCell>
                <mxCell id="31" value="1" style="text;html=1;align=center;verticalAlign=middle;resizable=0;points=[];autosize=1;strokeColor=none;fillColor=none;fontSize=20;strokeWidth=5;" vertex="1" parent="1">
                    <mxGeometry x="650" y="840" width="30" height="40" as="geometry"/>
                </mxCell>
                <mxCell id="32" value="seq_len" style="text;html=1;align=center;verticalAlign=middle;resizable=0;points=[];autosize=1;strokeColor=none;fillColor=none;fontSize=20;strokeWidth=5;" vertex="1" parent="1">
                    <mxGeometry x="850" y="800" width="90" height="40" as="geometry"/>
                </mxCell>
                <mxCell id="33" value="" style="endArrow=classic;html=1;exitX=1;exitY=0.5;exitDx=0;exitDy=0;entryX=0.5;entryY=1;entryDx=0;entryDy=0;rounded=1;strokeWidth=1;dashed=1;" edge="1" parent="1" source="2" target="16">
                    <mxGeometry width="50" height="50" relative="1" as="geometry">
                        <mxPoint x="570" y="360" as="sourcePoint"/>
                        <mxPoint x="620" y="310" as="targetPoint"/>
                    </mxGeometry>
                </mxCell>
                <mxCell id="35" value="" style="endArrow=none;html=1;rounded=1;strokeWidth=5;" edge="1" parent="1">
                    <mxGeometry width="50" height="50" relative="1" as="geometry">
                        <mxPoint x="2520" y="520" as="sourcePoint"/>
                        <mxPoint x="2520" y="360" as="targetPoint"/>
                    </mxGeometry>
                </mxCell>
                <mxCell id="36" value="" style="endArrow=none;html=1;rounded=1;strokeWidth=5;" edge="1" parent="1">
                    <mxGeometry width="50" height="50" relative="1" as="geometry">
                        <mxPoint x="2600" y="439.23" as="sourcePoint"/>
                        <mxPoint x="2440" y="439.23" as="targetPoint"/>
                    </mxGeometry>
                </mxCell>
                <mxCell id="37" value="" style="rounded=0;whiteSpace=wrap;html=1;rotation=90;strokeWidth=5;" vertex="1" parent="1">
                    <mxGeometry x="2830" y="280" width="40" height="320" as="geometry"/>
                </mxCell>
                <mxCell id="38" value="1" style="text;html=1;align=center;verticalAlign=middle;resizable=0;points=[];autosize=1;strokeColor=none;fillColor=none;fontSize=20;strokeWidth=5;" vertex="1" parent="1">
                    <mxGeometry x="2650" y="420" width="30" height="40" as="geometry"/>
                </mxCell>
                <mxCell id="39" value="pred_len" style="text;html=1;align=center;verticalAlign=middle;resizable=0;points=[];autosize=1;strokeColor=none;fillColor=none;fontSize=20;strokeWidth=5;" vertex="1" parent="1">
                    <mxGeometry x="2845" y="380" width="100" height="40" as="geometry"/>
                </mxCell>
                <mxCell id="40" value="" style="rounded=0;whiteSpace=wrap;html=1;strokeWidth=5;fillColor=#ffe6cc;strokeColor=#d79b00;rotation=90;" vertex="1" parent="1">
                    <mxGeometry x="2740" y="420" width="40" height="40" as="geometry"/>
                </mxCell>
            </root>
        </mxGraphModel>
    </diagram>
</mxfile>